<?xml version="1.0" encoding="UTF-8"?>
<svg xmlns="http://www.w3.org/2000/svg" width="500" height="500" viewBox="0 0 500 500">
  <path d="m250,110V0C111.95,0,.03,111.9,0,249.95h110c.03-77.3,62.7-139.95,140-139.95Z" fill="#c5c7c6"/>
  <path d="m390,249.95h110C499.97,111.9,388.05,0,250,0v110c77.3,0,139.97,62.65,140,139.95Z" fill="#ffffff"/>
  <path d="m390,249.95v.05c0,77.32-62.68,140-140,140v110c138.07,0,250-111.93,250-250v-.05h-110Z" fill="#c5c7c6"/>
  <path d="m110,250v-.05H0v.05c0,138.07,111.93,250,250,250v-110c-77.32,0-140-62.68-140-140Z" fill="#ffffff"/>
</svg>