<?xml version="1.0" encoding="UTF-8"?>
<svg xmlns="http://www.w3.org/2000/svg" width="645" height="500" viewBox="0 0 645 500">
  <path d="m387.16,250c.06,117.27-94.99,212.39-212.31,212.45h0V37.55c117.23-.02,212.29,94.96,212.31,212.15v.3" fill="#c5c7c6"/>
  <path d="m174.69,250c0,96.3-78.21,174.36-174.69,174.36V75.64c96.48,0,174.69,78.07,174.69,174.36Z" fill="#ffffff"/>
  <path d="m571.79,73.13C524.59,25.97,461.85,0,395.11,0h-7.94v500h7.92c66.8-.03,129.58-26.06,176.79-73.3,47.18-47.22,73.15-109.98,73.12-176.72v-.29c-.01-66.7-26.02-129.4-73.21-176.56h0Z" fill="#ffffff"/>
</svg>